<svg xmlns="http://www.w3.org/2000/svg" width="430" height="932" viewBox="0 0 430 932" fill="none">
  <rect width="430" height="932" fill="none"/>
  <g stroke="#7e886f" stroke-width="1.4" stroke-linecap="round" stroke-linejoin="round" opacity=".78">
    <path d="M35 36C18 80 21 132 36 180C50 225 49 268 33 314C20 352 20 407 35 448C50 492 50 535 35 578C20 620 21 674 36 716C51 759 52 810 34 866"/>
    <path d="M395 36C412 80 409 132 394 180C380 225 381 268 397 314C410 352 410 407 395 448C380 492 380 535 395 578C410 620 409 674 394 716C379 759 378 810 396 866"/>
    <path d="M68 34C110 8 156 13 178 42"/>
    <path d="M252 42C274 13 320 8 362 34"/>
    <path d="M62 884C112 912 164 908 199 884"/>
    <path d="M231 884C266 908 318 912 368 884"/>
  </g>
  <g stroke="#9a8b63" stroke-width="1" stroke-linecap="round" stroke-linejoin="round" opacity=".62">
    <path d="M60 58C84 54 99 69 94 90C117 74 144 79 154 103"/>
    <path d="M370 58C346 54 331 69 336 90C313 74 286 79 276 103"/>
    <path d="M58 852C84 859 104 846 104 823C124 844 151 843 166 822"/>
    <path d="M372 852C346 859 326 846 326 823C306 844 279 843 264 822"/>
    <path d="M44 462C68 452 83 462 86 482"/>
    <path d="M386 462C362 452 347 462 344 482"/>
  </g>
  <g fill="#89927b" opacity=".74">
    <path d="M34 116C53 95 78 100 90 125C66 135 45 132 34 116Z"/>
    <path d="M40 235C58 214 84 219 96 245C71 254 50 251 40 235Z"/>
    <path d="M31 650C51 631 77 638 86 666C60 673 41 668 31 650Z"/>
    <path d="M396 116C377 95 352 100 340 125C364 135 385 132 396 116Z"/>
    <path d="M390 235C372 214 346 219 334 245C359 254 380 251 390 235Z"/>
    <path d="M399 650C379 631 353 638 344 666C370 673 389 668 399 650Z"/>
  </g>
  <g fill="#a99a73" opacity=".82">
    <circle cx="54" cy="61" r="4"/>
    <circle cx="92" cy="39" r="3"/>
    <circle cx="376" cy="61" r="4"/>
    <circle cx="338" cy="39" r="3"/>
    <circle cx="54" cy="872" r="4"/>
    <circle cx="376" cy="872" r="4"/>
  </g>
</svg>
